# xmcd CD database file
#
# Track frame offsets:
#	150
#	21285
#	38922
#	58149
#	80405
#	97823
#	117875
#	137561
#	159848
#	178322
#
# Disc length: 2636 seconds
#
# Revision: 7
# Processed by: cddbd v1.5.2PL0 Copyright (c) Steve Scherf et al.
# Submitted via: CDex 1.70beta2
#
DISCID=7a0a4a0a
DTITLE=Era - Era 2
DYEAR=2000
DGENRE=New Age
TTITLE0=Omen sore
TTITLE1=Divano
TTITLE2=Devore amante
TTITLE3=Sentence
TTITLE4=Don't U
TTITLE5=Infanati
TTITLE6=Madona
TTITLE7=Hymne
TTITLE8=Misere mani
TTITLE9=In fine
EXTD=YEAR: 2000
EXTT0=
EXTT1=
EXTT2=
EXTT3=
EXTT4=
EXTT5=
EXTT6=
EXTT7=
EXTT8=
EXTT9=
PLAYORDER=
